<svg xmlns="http://www.w3.org/2000/svg" width="2310" height="2310" viewBox="0 0 2310 2310" fill="none">
<rect width="2310" height="2310" fill="#E62A45"/>
<path d="M1405.34 1964.19H678.927H327.844V1609.76V330.382H678.893V1609.76H1405.3V1964.19H1405.34ZM1165.88 847.162V1464.17H824.398V329.137H1161.2L1165.88 335.601L1642.54 978.807L1642.64 329.137H1979.24L1977.83 1462.79L1644.05 1462.76L1165.88 847.162ZM1777.6 1609.79C1773.32 1609.79 1769.82 1606.29 1769.82 1602.01C1769.82 1597.74 1773.32 1594.24 1777.6 1594.24H1868.99C1873.27 1594.24 1876.77 1597.74 1876.77 1602.01C1876.77 1606.29 1873.27 1609.79 1868.99 1609.79H1777.6ZM1838.58 1660.23C1838.58 1670.53 1830.23 1678.88 1819.93 1678.88C1809.63 1678.88 1801.27 1670.53 1801.27 1660.23C1801.27 1649.92 1809.63 1641.57 1819.93 1641.57C1830.23 1641.57 1838.58 1649.92 1838.58 1660.23ZM1811.17 1558.18H1836.9C1841.18 1558.18 1844.68 1561.68 1844.68 1565.95C1844.68 1570.23 1841.18 1573.73 1836.9 1573.73H1811.17C1806.9 1573.73 1803.4 1570.23 1803.4 1565.95C1803.43 1561.68 1806.93 1558.18 1811.17 1558.18ZM1805.08 1536.9C1805.08 1526.43 1813.56 1517.98 1824 1517.98C1834.48 1517.98 1842.93 1526.46 1842.93 1536.9C1842.93 1547.37 1834.44 1555.82 1824 1555.82C1813.56 1555.82 1805.08 1547.37 1805.08 1536.9ZM1849.33 1576.59C1853.6 1576.59 1857.11 1580.09 1857.11 1584.37C1857.11 1588.65 1853.6 1592.15 1849.33 1592.15H1795.79C1791.51 1592.15 1788.01 1588.65 1788.01 1584.37C1788.01 1580.09 1791.51 1576.59 1795.79 1576.59H1849.33ZM1796.16 1965.13C1789.22 1958.4 1784.84 1949.07 1784.84 1938.67C1784.84 1929.61 1788.11 1921.29 1793.5 1914.86C1796.53 1906.85 1855.46 1861.19 1855.46 1861.19C1861.95 1855.13 1866.06 1846.55 1866.06 1836.95C1866.06 1827.36 1861.95 1818.77 1855.46 1812.71V1812.61C1829.93 1779.08 1794.03 1764.09 1785.89 1751.27C1785.62 1750.9 1785.35 1750.49 1785.14 1750.09C1785.14 1750.05 1785.11 1750.05 1785.11 1750.02V1749.99C1784.81 1749.41 1784 1748.84 1783.8 1748.2C1783.33 1747.02 1783.16 1745.74 1783.19 1744.4C1783.63 1735.51 1786.59 1736.12 1786.59 1731.4C1786.59 1725 1784.34 1719.21 1780.7 1714.53C1780.06 1713.79 1777.87 1712.08 1777.64 1711.17C1776.15 1705.75 1780.16 1700.12 1780.16 1694.2C1780.16 1661.37 1753.56 1634.77 1720.73 1634.77C1718.37 1634.77 1716.08 1634.94 1713.82 1635.21L1691.7 1642.45C1690.93 1642.89 1690.15 1643.32 1689.38 1643.8C1688.97 1644.03 1688.6 1644.3 1688.23 1644.57C1692.07 1647.06 1730.53 1672.65 1735.64 1705.31L1735.37 1705.44C1735.48 1705.88 1735.64 1706.29 1735.64 1706.72C1735.64 1709.95 1733.02 1712.58 1729.78 1712.58C1727.87 1712.58 1726.25 1711.6 1725.17 1710.19L1725.1 1710.22C1725.1 1710.22 1724.97 1709.99 1724.77 1709.58C1724.6 1709.32 1724.43 1709.05 1724.33 1708.74C1720.26 1701.13 1699.51 1664.7 1672.81 1659.35C1669.58 1659.01 1667.29 1658.37 1665.57 1657.6C1663.25 1656.76 1661.36 1655.01 1660.28 1652.79C1660.25 1652.79 1660.25 1652.72 1660.21 1652.72H1660.25C1659.68 1651.51 1659.34 1650.16 1659.34 1648.75C1659.34 1645.01 1661.53 1641.78 1664.73 1640.26V1640.23C1664.73 1640.23 1711.77 1616.52 1723.62 1616.52C1723.76 1616.52 1723.82 1616.56 1723.96 1616.56C1727.33 1615.95 1730.73 1615.58 1734.26 1615.58C1762.48 1615.58 1786.05 1635.28 1792.11 1661.64L1792.15 1661.61C1792.18 1661.81 1792.22 1661.98 1792.25 1662.15C1792.55 1663.53 1792.79 1664.94 1792.99 1666.39C1801.91 1717.83 1812.25 1747.93 1826.63 1758.98C1833.74 1764.43 1844.88 1775.24 1854.61 1785.04C1862.43 1790.12 1868.99 1796.92 1873.84 1804.93C1873.94 1805.04 1874.08 1805.17 1874.08 1805.17H1873.98C1879.5 1814.4 1882.73 1825.14 1882.73 1836.65C1882.73 1839.61 1882.46 1842.47 1882.06 1845.34C1882.06 1845.5 1882.06 1845.67 1882.06 1845.84C1881.62 1852.71 1879.16 1859.21 1875.66 1865.27C1871.79 1872.61 1866.5 1879.11 1860.1 1884.29C1855.08 1889 1850 1893.01 1845.66 1896.11C1821.78 1913.28 1803.4 1924.86 1803.4 1946.01C1803.4 1949.17 1806.93 1955.5 1807.64 1958.46C1807.98 1959.27 1808.18 1960.18 1808.18 1961.12C1808.18 1964.83 1805.18 1967.86 1801.44 1967.86C1799.25 1967.82 1797.4 1966.71 1796.16 1965.13ZM1798.75 1986.21C1798.75 1979.67 1805.92 1974.39 1814.78 1974.39C1823.63 1974.39 1830.81 1979.67 1830.81 1986.21C1830.81 1992.74 1823.63 1998.02 1814.78 1998.02C1805.92 1998.02 1798.75 1992.74 1798.75 1986.21ZM1809.96 2007.45C1809.96 2002.7 1816.02 1998.87 1823.47 1998.87C1830.91 1998.87 1836.97 2002.7 1836.97 2007.45C1836.97 2012.2 1830.91 2016.04 1823.47 2016.04C1815.99 2016.04 1809.96 2012.2 1809.96 2007.45ZM1830.23 2031.02C1824.78 2031.02 1820.37 2027.96 1820.37 2024.15C1820.37 2020.35 1824.78 2017.28 1830.23 2017.28C1835.69 2017.28 1840.1 2020.35 1840.1 2024.15C1840.1 2027.92 1835.69 2031.02 1830.23 2031.02ZM1975.03 1677.4C1975 1677.43 1975.03 1677.46 1975 1677.5C1971.23 1682.68 1969.54 1680.53 1958.6 1688.61C1958.56 1688.64 1958.53 1688.64 1958.5 1688.68C1958.63 1688.74 1958.8 1688.74 1958.93 1688.81C1952.4 1694.33 1937.45 1707.56 1929.37 1717.43C1928.43 1718.61 1927.62 1719.69 1926.94 1720.56C1926 1721.91 1925.23 1723.15 1924.69 1724.26C1924.69 1724.2 1924.66 1724.13 1924.66 1724.06C1924.42 1726.05 1922.8 1727.6 1920.75 1727.6C1918.53 1727.6 1916.74 1725.81 1916.74 1723.59C1916.74 1723.39 1916.84 1723.19 1916.88 1722.98C1916.84 1723.09 1916.78 1723.19 1916.78 1723.29C1916.51 1721.64 1916.14 1719.58 1916.14 1717.87C1916.14 1712.08 1917.82 1706.72 1920.55 1702.08C1920.61 1701.87 1920.68 1701.67 1920.75 1701.5C1923.98 1694.33 1943.01 1679.79 1943.01 1679.79C1949.98 1675.04 1956.58 1670.9 1960.08 1666.89C1960.25 1666.72 1960.35 1666.52 1960.48 1666.35C1960.96 1665.78 1961.36 1665.18 1961.66 1664.6C1961.8 1664.37 1961.9 1664.1 1962 1663.86C1962.4 1662.92 1962.67 1661.94 1962.57 1661C1962.57 1658.58 1961.49 1656.42 1959.81 1654.91C1955.77 1649.76 1948.19 1645.04 1942.77 1642.08C1943.58 1641.44 1944.46 1640.9 1945.33 1640.36C1944.59 1640.8 1943.85 1641.24 1943.18 1641.74C1934.82 1637.67 1925.5 1635.31 1915.6 1635.31C1880.88 1635.31 1852.73 1663.46 1852.73 1698.17C1852.73 1718.27 1857.17 1721.6 1871.85 1733.12C1876.03 1734.84 1878.96 1738.94 1878.96 1743.72C1878.96 1746.35 1878.05 1748.74 1876.57 1750.66C1879.9 1759.04 1884.38 1767.39 1888.05 1770.46C1899.33 1781.03 1914.25 1829.51 1914.25 1829.51C1914.25 1829.51 1912.9 1882.3 1874.41 1901.43C1845.99 1915.54 1838.21 1930.18 1836.09 1936.92C1836.09 1937.08 1836.19 1937.22 1836.19 1937.42C1836.19 1938.56 1835.82 1939.61 1835.28 1940.55C1835.28 1940.62 1835.28 1940.72 1835.28 1940.72L1835.22 1940.69C1834.07 1942.61 1832.09 1943.95 1829.66 1943.95C1826.06 1943.95 1823.13 1941.02 1823.13 1937.42C1824.21 1914.59 1851.45 1893.65 1869.53 1885.03C1887.61 1876.41 1914.35 1837.05 1885.19 1798.77C1865.66 1773.12 1852.19 1748.1 1845.39 1734.4C1843.6 1731.2 1842.02 1727.87 1840.67 1724.4C1840.47 1723.93 1840.3 1723.59 1840.3 1723.59L1840.4 1723.76C1837.14 1715.07 1835.28 1705.68 1835.28 1695.85C1835.28 1652.04 1870.81 1616.52 1914.62 1616.52C1938.26 1616.52 1959.41 1626.93 1973.92 1643.29C1978.63 1647.67 1981.66 1653.9 1981.66 1660.87C1981.63 1667.3 1979.11 1673.09 1975.03 1677.4Z" fill="white"/>
</svg>
